<svg xmlns="http://www.w3.org/2000/svg" xmlns:xlink="http://www.w3.org/1999/xlink" width="80" zoomAndPan="magnify" viewBox="0 0 60 30.000001" height="40" preserveAspectRatio="xMidYMid meet" version="1.0"><defs><g><g id="id1"/></g></defs><g fill="rgb(0%, 0%, 0%)" fill-opacity="1"><g transform="translate(3.808593, 19.596776)"><g><path d="M 1.078125 -9.234375 L 3.375 -9.234375 C 4.320312 -9.234375 5.140625 -9.050781 5.828125 -8.6875 C 6.515625 -8.320312 7.035156 -7.789062 7.390625 -7.09375 C 7.753906 -6.40625 7.9375 -5.578125 7.9375 -4.609375 C 7.9375 -3.160156 7.535156 -2.03125 6.734375 -1.21875 C 5.929688 -0.40625 4.8125 0 3.375 0 L 1.078125 0 Z M 3.34375 -0.921875 C 4.445312 -0.921875 5.3125 -1.222656 5.9375 -1.828125 C 6.5625 -2.429688 6.875 -3.359375 6.875 -4.609375 C 6.875 -5.859375 6.5625 -6.785156 5.9375 -7.390625 C 5.3125 -7.992188 4.445312 -8.296875 3.34375 -8.296875 L 2.09375 -8.296875 L 2.09375 -0.921875 Z M 3.34375 -0.921875 "/></g></g></g><g fill="rgb(0%, 0%, 0%)" fill-opacity="1"><g transform="translate(12.488268, 19.596776)"><g><path d="M 1.359375 0 L 1.359375 -6.34375 L 2.28125 -6.34375 L 2.28125 0 Z M 1.8125 -7.578125 C 1.601562 -7.578125 1.425781 -7.644531 1.28125 -7.78125 C 1.144531 -7.925781 1.078125 -8.101562 1.078125 -8.3125 C 1.078125 -8.507812 1.144531 -8.675781 1.28125 -8.8125 C 1.425781 -8.957031 1.601562 -9.03125 1.8125 -9.03125 C 2.007812 -9.03125 2.179688 -8.957031 2.328125 -8.8125 C 2.472656 -8.675781 2.546875 -8.503906 2.546875 -8.296875 C 2.546875 -8.097656 2.472656 -7.925781 2.328125 -7.78125 C 2.179688 -7.644531 2.007812 -7.578125 1.8125 -7.578125 Z M 1.8125 -7.578125 "/></g></g></g><g fill="rgb(0%, 0%, 0%)" fill-opacity="1"><g transform="translate(16.117212, 19.596776)"><g><path d="M 6.75 -6.34375 L 6.75 0 L 5.828125 0 L 5.828125 -0.9375 C 5.566406 -0.570312 5.242188 -0.285156 4.859375 -0.078125 C 4.484375 0.117188 4.066406 0.21875 3.609375 0.21875 C 3.003906 0.21875 2.460938 0.0703125 1.984375 -0.21875 C 1.503906 -0.507812 1.128906 -0.910156 0.859375 -1.421875 C 0.585938 -1.929688 0.453125 -2.519531 0.453125 -3.1875 C 0.453125 -3.832031 0.585938 -4.410156 0.859375 -4.921875 C 1.128906 -5.429688 1.5 -5.832031 1.96875 -6.125 C 2.445312 -6.414062 2.988281 -6.5625 3.59375 -6.5625 C 4.050781 -6.5625 4.472656 -6.457031 4.859375 -6.25 C 5.242188 -6.050781 5.566406 -5.765625 5.828125 -5.390625 L 5.828125 -6.34375 Z M 3.59375 -0.625 C 4.019531 -0.625 4.398438 -0.726562 4.734375 -0.9375 C 5.078125 -1.15625 5.34375 -1.457031 5.53125 -1.84375 C 5.726562 -2.238281 5.828125 -2.679688 5.828125 -3.171875 C 5.828125 -3.660156 5.726562 -4.097656 5.53125 -4.484375 C 5.34375 -4.867188 5.078125 -5.171875 4.734375 -5.390625 C 4.398438 -5.609375 4.019531 -5.71875 3.59375 -5.71875 C 3.164062 -5.71875 2.785156 -5.609375 2.453125 -5.390625 C 2.117188 -5.171875 1.851562 -4.867188 1.65625 -4.484375 C 1.46875 -4.109375 1.375 -3.675781 1.375 -3.1875 C 1.375 -2.6875 1.46875 -2.238281 1.65625 -1.84375 C 1.851562 -1.457031 2.117188 -1.15625 2.453125 -0.9375 C 2.785156 -0.726562 3.164062 -0.625 3.59375 -0.625 Z M 3.59375 -0.625 "/></g></g></g><g fill="rgb(0%, 0%, 0%)" fill-opacity="1"><g transform="translate(23.713615, 19.596776)"><g><path d="M 7.59375 -6.5625 C 8.1875 -6.5625 8.675781 -6.351562 9.0625 -5.9375 C 9.445312 -5.53125 9.640625 -4.960938 9.640625 -4.234375 L 9.640625 0 L 8.71875 0 L 8.71875 -3.828125 C 8.71875 -4.503906 8.59375 -4.988281 8.34375 -5.28125 C 8.09375 -5.570312 7.765625 -5.71875 7.359375 -5.71875 C 6.859375 -5.71875 6.46875 -5.523438 6.1875 -5.140625 C 5.914062 -4.753906 5.757812 -4.234375 5.71875 -3.578125 L 5.71875 0 L 4.796875 0 L 4.796875 -3.828125 C 4.796875 -4.503906 4.664062 -4.988281 4.40625 -5.28125 C 4.15625 -5.570312 3.828125 -5.71875 3.421875 -5.71875 C 2.867188 -5.71875 2.457031 -5.484375 2.1875 -5.015625 C 1.914062 -4.554688 1.78125 -3.941406 1.78125 -3.171875 L 1.78125 0 L 0.859375 0 L 0.859375 -6.34375 L 1.78125 -6.34375 L 1.78125 -5.34375 C 1.988281 -5.738281 2.25 -6.039062 2.5625 -6.25 C 2.882812 -6.457031 3.253906 -6.5625 3.671875 -6.5625 C 4.128906 -6.5625 4.53125 -6.4375 4.875 -6.1875 C 5.21875 -5.9375 5.457031 -5.582031 5.59375 -5.125 C 5.789062 -5.570312 6.0625 -5.921875 6.40625 -6.171875 C 6.75 -6.429688 7.144531 -6.5625 7.59375 -6.5625 Z M 7.59375 -6.5625 "/></g></g></g><g fill="rgb(0%, 0%, 0%)" fill-opacity="1"><g transform="translate(34.14005, 19.596776)"><g><path d="M 3.609375 0.21875 C 3.003906 0.21875 2.460938 0.0703125 1.984375 -0.21875 C 1.503906 -0.507812 1.128906 -0.910156 0.859375 -1.421875 C 0.585938 -1.941406 0.453125 -2.53125 0.453125 -3.1875 C 0.453125 -3.832031 0.585938 -4.410156 0.859375 -4.921875 C 1.128906 -5.429688 1.5 -5.832031 1.96875 -6.125 C 2.445312 -6.414062 2.988281 -6.5625 3.59375 -6.5625 C 4.195312 -6.5625 4.738281 -6.414062 5.21875 -6.125 C 5.695312 -5.832031 6.070312 -5.425781 6.34375 -4.90625 C 6.613281 -4.394531 6.75 -3.816406 6.75 -3.171875 C 6.75 -2.515625 6.613281 -1.929688 6.34375 -1.421875 C 6.082031 -0.910156 5.710938 -0.507812 5.234375 -0.21875 C 4.765625 0.0703125 4.222656 0.21875 3.609375 0.21875 Z M 3.59375 -0.625 C 4.019531 -0.625 4.398438 -0.726562 4.734375 -0.9375 C 5.078125 -1.15625 5.34375 -1.457031 5.53125 -1.84375 C 5.726562 -2.238281 5.828125 -2.679688 5.828125 -3.171875 C 5.828125 -3.660156 5.726562 -4.097656 5.53125 -4.484375 C 5.34375 -4.867188 5.078125 -5.171875 4.734375 -5.390625 C 4.398438 -5.609375 4.019531 -5.71875 3.59375 -5.71875 C 3.164062 -5.71875 2.785156 -5.609375 2.453125 -5.390625 C 2.117188 -5.171875 1.851562 -4.867188 1.65625 -4.484375 C 1.46875 -4.109375 1.375 -3.675781 1.375 -3.1875 C 1.375 -2.6875 1.46875 -2.238281 1.65625 -1.84375 C 1.851562 -1.457031 2.117188 -1.15625 2.453125 -0.9375 C 2.785156 -0.726562 3.164062 -0.625 3.59375 -0.625 Z M 3.59375 -0.625 "/></g></g></g><g fill="rgb(0%, 0%, 0%)" fill-opacity="1"><g transform="translate(41.330225, 19.596776)"><g><path d="M 3.875 -6.5625 C 4.3125 -6.5625 4.71875 -6.46875 5.09375 -6.28125 C 5.46875 -6.101562 5.765625 -5.835938 5.984375 -5.484375 C 6.210938 -5.128906 6.328125 -4.710938 6.328125 -4.234375 L 6.328125 0 L 5.40625 0 L 5.40625 -3.828125 C 5.40625 -5.085938 4.84375 -5.71875 3.71875 -5.71875 C 3.070312 -5.71875 2.585938 -5.484375 2.265625 -5.015625 C 1.941406 -4.554688 1.78125 -3.941406 1.78125 -3.171875 L 1.78125 0 L 0.859375 0 L 0.859375 -6.34375 L 1.78125 -6.34375 L 1.78125 -5.28125 C 1.988281 -5.6875 2.269531 -6 2.625 -6.21875 C 2.988281 -6.445312 3.40625 -6.5625 3.875 -6.5625 Z M 3.875 -6.5625 "/></g></g></g><g fill="rgb(0%, 0%, 0%)" fill-opacity="1"><g transform="translate(48.601646, 19.596776)"><g><path d="M 6.75 -9.828125 L 6.75 0 L 5.828125 0 L 5.828125 -0.9375 C 5.566406 -0.570312 5.242188 -0.285156 4.859375 -0.078125 C 4.484375 0.117188 4.066406 0.21875 3.609375 0.21875 C 3.003906 0.21875 2.460938 0.0703125 1.984375 -0.21875 C 1.503906 -0.507812 1.128906 -0.910156 0.859375 -1.421875 C 0.585938 -1.929688 0.453125 -2.519531 0.453125 -3.1875 C 0.453125 -3.832031 0.585938 -4.410156 0.859375 -4.921875 C 1.128906 -5.429688 1.5 -5.832031 1.96875 -6.125 C 2.445312 -6.414062 2.988281 -6.5625 3.59375 -6.5625 C 4.050781 -6.5625 4.472656 -6.457031 4.859375 -6.25 C 5.242188 -6.050781 5.566406 -5.765625 5.828125 -5.390625 L 5.828125 -9.828125 Z M 3.59375 -0.625 C 4.019531 -0.625 4.398438 -0.726562 4.734375 -0.9375 C 5.078125 -1.15625 5.34375 -1.457031 5.53125 -1.84375 C 5.726562 -2.238281 5.828125 -2.679688 5.828125 -3.171875 C 5.828125 -3.660156 5.726562 -4.097656 5.53125 -4.484375 C 5.34375 -4.867188 5.078125 -5.171875 4.734375 -5.390625 C 4.398438 -5.609375 4.019531 -5.71875 3.59375 -5.71875 C 3.164062 -5.71875 2.785156 -5.609375 2.453125 -5.390625 C 2.117188 -5.171875 1.851562 -4.867188 1.65625 -4.484375 C 1.46875 -4.109375 1.375 -3.675781 1.375 -3.1875 C 1.375 -2.6875 1.46875 -2.238281 1.65625 -1.84375 C 1.851562 -1.457031 2.117188 -1.15625 2.453125 -0.9375 C 2.785156 -0.726562 3.164062 -0.625 3.59375 -0.625 Z M 3.59375 -0.625 "/></g></g></g></svg>